<svg xmlns="http://www.w3.org/2000/svg" viewBox="0 0 716.08 362.66"><title>Asset 3</title><g id="Layer_2" data-name="Layer 2"><g id="Pie"><path d="M.31,183.05s302-70.67,321-87.67c12.14-10.86,33.43-35.85,58-54.66,13.9-10.64,41-18.67,41-18.67s39.34,2.33,86,30c90,55,86,79.67,78,92.33,0,0-28-5.33-44,4.67s-36,44-68,50S.31,183.05.31,183.05Z"/><path d="M7.65,309.72c-3.09,2.08-9.09,24-7.34,26.66s118,18.67,272,23.34S464,363.67,479,356.38c23.33-11.33,132.67-156.29,132.67-156.29H631s1.58-8.29,4.83-8,52.75,6.75,52.75,6.75-1.75-12,4.75-11.25,19.75,6.25,19.75,6.25-.75-32,2.25-36-3.5-20.25-7.75-21.5c0,0,8.5-6,3-15.25a34.5,34.5,0,0,0-13.75-13s6.5-8.75-20.5-20.5c0,0,4.75-10.5-3.5-15.25s-18,0-18,0-9.25-16.5-16-17a26,26,0,0,0-12.25,2.25L616.31,49.3s.5-8.25-7.75-7.75c0,0,.5-10.75-9-13.5s-26,8-26,8-9-15.5-25.75-22.25-37.75,3.25-37.75,3.25a30.72,30.72,0,0,0-20.25-16c-15-3.75-59.75,3.75-59.75,3.75s50.44,16.53,74.25,25.58,71.51,33.27,92.34,50.34c22.44,18.4,35.16,36.83,35.16,36.83s-19.06,4.07-21.5,8-125,203.63-144,204.83C210.81,346.55,10.73,307.63,7.65,309.72Z"/></g></g></svg>