<?xml version="1.0" encoding="UTF-8" ?>
<!DOCTYPE svg PUBLIC "-//W3C//DTD SVG 1.1//EN" "http://www.w3.org/Graphics/SVG/1.1/DTD/svg11.dtd">
<svg width="667pt" height="667pt" viewBox="0 0 667 667" version="1.1" xmlns="http://www.w3.org/2000/svg">
<g id="#3d3f4cff">
<path fill="#50b8d2" opacity="1.00" d=" M 320.62 0.00 L 346.38 0.00 C 355.51 0.93 364.72 1.11 373.82 2.34 C 430.75 9.10 485.77 31.02 531.80 65.19 C 582.35 102.61 622.17 154.44 644.73 213.19 C 653.77 236.66 660.21 261.16 663.74 286.07 C 665.53 297.52 665.97 309.10 667.00 320.62 L 667.00 346.37 C 665.83 361.65 664.85 376.98 661.95 392.06 C 649.58 463.02 613.17 529.42 560.20 578.20 C 506.66 628.19 436.12 659.64 363.10 665.73 C 357.52 666.07 351.95 666.49 346.38 667.00 L 320.62 667.00 C 304.78 665.81 288.89 664.73 273.27 661.65 C 202.94 649.02 137.20 612.76 88.81 560.20 C 41.86 509.91 11.24 444.67 2.67 376.40 C 1.21 366.45 0.99 356.38 0.00 346.38 L 0.00 320.62 C 1.14 306.19 1.98 291.71 4.61 277.45 C 11.45 237.05 25.81 197.92 46.85 162.75 C 76.86 112.38 120.39 70.17 171.65 41.70 C 209.37 20.76 251.21 7.23 294.07 2.23 C 302.88 1.10 311.78 0.90 320.62 0.00 M 169.96 244.98 C 141.23 313.35 112.34 381.66 83.68 450.06 C 96.88 460.98 110.41 471.50 123.74 482.26 C 138.14 493.61 152.22 505.37 166.82 516.47 C 194.78 444.54 222.07 372.35 250.14 300.48 C 251.41 302.01 252.65 303.58 253.84 305.18 C 280.33 342.27 306.80 379.39 333.33 416.45 C 337.39 411.70 340.76 406.45 344.43 401.42 C 358.18 382.17 371.92 362.93 385.67 343.68 C 396.13 329.33 406.04 314.56 416.85 300.48 C 444.93 372.35 472.23 444.54 500.18 516.47 C 511.63 507.89 522.57 498.64 533.82 489.81 C 550.29 476.53 566.97 463.49 583.32 450.06 C 571.05 420.58 558.54 391.19 546.20 361.74 C 514.13 285.77 482.31 209.69 450.11 133.77 C 411.20 183.56 372.54 233.54 333.66 283.35 C 328.85 278.09 324.77 272.23 320.32 266.67 C 285.84 222.38 251.44 178.01 216.89 133.76 C 201.08 170.76 185.65 207.92 169.96 244.98 Z" />
</g>
<g id="#ffffffff">
<path fill="#ffffff" opacity="1.00" d=" M 169.96 244.98 C 185.65 207.92 201.08 170.76 216.89 133.76 C 251.44 178.01 285.84 222.38 320.32 266.67 C 324.77 272.23 328.85 278.09 333.66 283.35 C 372.54 233.54 411.20 183.56 450.11 133.77 C 482.31 209.69 514.13 285.77 546.20 361.74 C 558.54 391.19 571.05 420.58 583.32 450.06 C 566.97 463.49 550.29 476.53 533.82 489.81 C 522.57 498.64 511.63 507.89 500.18 516.47 C 472.23 444.54 444.93 372.35 416.85 300.48 C 406.04 314.56 396.13 329.33 385.67 343.68 C 371.92 362.93 358.18 382.17 344.43 401.42 C 340.76 406.45 337.39 411.70 333.33 416.45 C 306.80 379.39 280.33 342.27 253.84 305.18 C 252.65 303.58 251.41 302.01 250.14 300.48 C 222.07 372.35 194.78 444.54 166.82 516.47 C 152.22 505.37 138.14 493.61 123.74 482.26 C 110.41 471.50 96.88 460.98 83.68 450.06 C 112.34 381.66 141.23 313.35 169.96 244.98 Z" />
</g>
</svg>
