<?xml version="1.0" standalone="no"?>
<!DOCTYPE svg PUBLIC "-//W3C//DTD SVG 20010904//EN"
 "http://www.w3.org/TR/2001/REC-SVG-20010904/DTD/svg10.dtd">
<svg version="1.0" xmlns="http://www.w3.org/2000/svg"
 width="700.000000pt" height="700.000000pt" viewBox="0 0 700.000000 700.000000"
 preserveAspectRatio="xMidYMid meet">
<metadata>
Created by potrace 1.11, written by Peter Selinger 2001-2013
</metadata>
<g transform="translate(0.000000,700.000000) scale(0.100000,-0.100000)"
fill="#000000" stroke="none">
<path d="M3250 6993 c-860 -64 -1648 -430 -2249 -1042 -551 -562 -885 -1262
-983 -2066 -20 -168 -17 -635 5 -805 107 -806 444 -1496 1005 -2057 556 -556
1267 -902 2054 -1000 198 -25 657 -25 843 0 755 101 1412 407 1954 910 742
688 1142 1637 1118 2647 -6 247 -23 400 -67 620 -306 1521 -1608 2674 -3150
2790 -125 9 -424 11 -530 3z m-371 -2169 c327 -420 602 -771 610 -778 14 -12
87 77 621 765 333 428 608 778 611 779 4 0 23 -37 42 -82 1039 -2465 1350
-3206 1351 -3220 1 -20 -855 -711 -866 -700 -5 6 -244 622 -810 2094 -34 87
-65 155 -69 152 -5 -3 -194 -265 -420 -582 -227 -317 -421 -587 -433 -599
l-21 -22 -425 595 c-233 327 -429 599 -436 605 -8 6 -21 -17 -47 -83 -249
-654 -830 -2155 -835 -2160 -12 -12 -867 679 -866 699 1 14 1317 3149 1375
3276 7 15 15 27 18 27 3 -1 273 -345 600 -766z"/>
</g>
</svg>
